Coordinates
version=1
nRows=11
nColumns=63
inDegrees=yes

Units are S.I. units (second, meters, Newtons, ...)
If the header above contains a line with 'inDegrees', this indicates whether rotational values are in degrees (yes) or radians (no).

endheader
time	pelvis_tilt	pelvis_list	pelvis_rotation	pelvis_tx	pelvis_ty	pelvis_tz	hip_flexion_r	hip_adduction_r	hip_rotation_r	knee_angle_r	knee_angle_r_beta	ankle_angle_r	subtalar_angle_r	mtp_angle_r	hip_flexion_l	hip_adduction_l	hip_rotation_l	knee_angle_l	knee_angle_l_beta	ankle_angle_l	subtalar_angle_l	mtp_angle_l	L5_S1_Flex_Ext	L5_S1_Lat_Bending	L5_S1_axial_rotation	L4_L5_Flex_Ext	L4_L5_Lat_Bending	L4_L5_axial_rotation	L3_L4_Flex_Ext	L3_L4_Lat_Bending	L3_L4_axial_rotation	L2_L3_Flex_Ext	L2_L3_Lat_Bending	L2_L3_axial_rotation	L1_L2_Flex_Ext	L1_L2_Lat_Bending	L1_L2_axial_rotation	L1_T12_Flex_Ext	L1_T12_Lat_Bending	L1_T12_axial_rotation	Abs_r3	Abs_r2	Abs_r1	Abs_t1	Abs_t2	neck_flexion	neck_bending	neck_rotation	arm_flex_r	arm_add_r	arm_rot_r	elbow_flex_r	pro_sup_r	wrist_flex_r	wrist_dev_r	arm_flex_l	arm_add_l	arm_rot_l	elbow_flex_l	pro_sup_l	wrist_flex_l	wrist_dev_l
      0.00000000	     -0.45174052	     -3.57769098	     89.39893616	      0.15850980	      1.15271939	      0.43620832	      3.45933008	     -1.34612571	      1.35642543	      9.53052381	      0.16633902	     30.73291792	      3.10626923	      0.00000000	      4.06333421	      2.25000153	      5.66891047	      7.03417501	      0.12276951	     31.72862195	     -8.09550835	      0.00000000	      0.56338367	     -0.07664101	      0.94821532	      1.04625981	     -0.10193255	      1.00747878	      0.92558303	     -0.18634496	      1.00747878	      0.64389120	     -0.18634496	      0.82968840	      0.52315808	     -0.15628635	      0.77042495	      0.32191743	     -0.11871693	      0.71116149	      4.02419322	     -0.86697847	      5.27368914	      0.00000000	      0.00000000	     25.53619032	     -6.77907498	      1.87832201	     69.71762671	     -1.20544751	     83.44115820	     27.43439602	     88.45267948	    -19.05523057	    -23.06117676	     60.84392043	     -6.94588925	     64.77463174	     44.78764730	     49.52600624	      2.94470539	     13.64162592
      0.02272727	     -0.43272196	     -3.38918859	     90.10433805	      0.15839261	      1.15246495	      0.43470450	      2.87324119	     -1.26547005	      1.60568882	      8.93528749	      0.15595019	     30.87326476	      1.98438838	      0.00000000	      3.67200498	      2.23831688	      8.53969357	      7.07547787	      0.12349038	     30.83501570	     -9.23387086	      0.00000000	      0.56684598	     -0.09760503	      0.76943400	      1.05268968	     -0.12981469	      0.81752363	      0.93127127	     -0.23731687	      0.81752363	      0.64784827	     -0.23731687	      0.67325475	      0.52637318	     -0.19903618	      0.62516513	      0.32389579	     -0.15119019	      0.57707550	      4.04892417	     -1.10412763	      4.27936108	      0.00000000	      0.00000000	     25.51209778	     -6.64684956	     -0.38138114	     68.70192390	     -1.13813252	     80.24596138	     28.54597899	     88.46148524	    -17.38570360	    -23.01361684	     60.77405144	     -7.24182751	     66.22520808	     44.93767568	     49.63348616	      3.05726663	      8.23409173
      0.04545455	     -0.46770629	     -3.24192262	     90.08426979	      0.15904652	      1.15222269	      0.43356441	      2.57429757	     -1.26851283	      1.99714081	      8.60964640	      0.15026668	     31.26628382	      1.85285714	      0.00000000	      3.28958901	      2.19944234	      9.55804994	      6.92214987	      0.12081431	     30.72901203	     -9.25497049	      0.00000000	      0.56763054	     -0.10011756	      0.68326413	      1.05414668	     -0.13315636	      0.72596814	      0.93256021	     -0.24342584	      0.72596814	      0.64874494	     -0.24342584	      0.59785612	      0.52710172	     -0.20415973	      0.55515211	      0.32434409	     -0.15508211	      0.51244810	      4.05452819	     -1.13254990	      3.80011013	      0.00000000	      0.00000000	     25.64497720	     -6.53931476	     -0.92368142	     68.32628724	     -0.65304035	     79.56807610	     28.95622456	     88.21479072	    -16.85761836	    -22.97086967	     60.35787735	     -7.86272213	     65.91915919	     45.72626352	     49.30786157	      3.11013108	      6.59657051
      0.06818182	     -0.40255924	     -2.95487990	     90.86977152	      0.15888994	      1.15259792	      0.43161197	      1.25486367	     -0.68657798	      9.34670810	      6.76765823	      0.11811792	     28.59994076	     -9.12815593	      0.00000000	      2.40139959	      2.22779297	     14.78161814	      5.95582978	      0.10394884	     28.95101976	    -14.73875485	      0.00000000	      0.57030388	     -0.09717966	      0.51187714	      1.05911134	     -0.12924895	      0.54386946	      0.93695225	     -0.23628263	      0.54386946	      0.65180031	     -0.23628263	      0.44789249	      0.52958419	     -0.19816877	      0.41590017	      0.32587164	     -0.15053130	      0.38390785	      4.07362361	     -1.09931577	      2.84690707	      0.00000000	      0.00000000	     25.29001816	     -6.61241986	     -1.03857261	     67.35860175	     -0.49419129	     77.03777386	     29.31478432	     88.42983529	    -15.05541960	    -22.94202579	     60.64443133	     -8.11279469	     68.52011920	     45.48275911	     46.11261996	      2.09581131	      2.48798208
      0.09090909	     -0.32423178	     -2.83516625	     91.22869288	      0.15843538	      1.15275054	      0.43101140	      0.91615777	     -0.62103928	      9.37536333	      6.31047809	      0.11013862	     28.70887501	     -9.32080989	      0.00000000	      2.19902452	      2.11233054	     15.13390478	      5.80235667	      0.10127023	     29.38375541	    -14.30191503	      0.00000000	      0.57440024	     -0.06169568	      0.39087600	      1.06671869	     -0.08205526	      0.41530575	      0.94368216	     -0.15000688	      0.41530575	      0.65648204	     -0.15000688	      0.34201650	      0.53338807	     -0.12580984	      0.31758675	      0.32821230	     -0.09556661	      0.29315700	      4.10288351	     -0.69791390	      2.17393505	      0.00000000	      0.00000000	     25.19387080	     -6.90027380	      0.43738630	     67.08824088	     -0.10852377	     76.56622225	     29.13427085	     88.34481364	    -13.95781256	    -22.99174131	     60.22215050	     -8.35950296	     67.92881769	     45.56618816	     45.72055760	      1.88904781	      1.72317932
      0.11363636	     -0.13798775	     -2.73573939	     91.47853468	      0.15776342	      1.15299364	      0.43065983	      0.64817466	     -0.42094716	     10.09919824	      5.91518232	      0.10323941	     28.45949269	    -10.43194756	      0.00000000	      2.14030377	      1.89770547	     14.51165211	      5.82409688	      0.10164967	     30.24842541	    -13.06596672	      0.00000000	      0.57659577	      0.00955410	      0.26819921	      1.07079601	      0.01270696	      0.28496166	      0.94728919	      0.02322984	      0.28496166	      0.65899131	      0.02322984	      0.23467431	      0.53542683	      0.01948272	      0.21791186	      0.32946682	      0.01479930	      0.20114940	      4.11856594	      0.10807791	      1.49164352	      0.00000000	      0.00000000	     25.15789071	     -7.11224946	      3.79243716	     67.18571218	      0.50147529	     77.24185279	     28.54371062	     88.21836292	    -13.08445953	    -23.01470833	     59.62064665	     -8.73895126	     66.72094380	     45.81430103	     45.34070818	      1.53203346	      1.91673447
      0.13636364	      0.02310606	     -2.71187707	     91.67113272	      0.15712220	      1.15319960	      0.43079397	      0.68231381	     -0.32498828	      9.02430909	      5.94158277	      0.10370018	     28.94671742	     -8.98730337	      0.00000000	      2.30119119	      1.67759100	     12.62730596	      6.06771513	      0.10590161	     31.53506595	    -10.21082447	      0.00000000	      0.57725850	      0.06457147	      0.18253120	      1.07202676	      0.08588006	      0.19393940	      0.94837799	      0.15699907	      0.19393940	      0.65974874	      0.15699907	      0.15971480	      0.53604225	      0.13167414	      0.14830660	      0.32984551	      0.10002121	      0.13689840	      4.12329976	      0.73044539	      1.01518379	      0.00000000	      0.00000000	     25.18351859	     -7.48468396	      5.90870126	     67.16769437	      0.91307279	     77.24303403	     28.04211086	     88.16298014	    -12.22864534	    -23.00274447	     59.24041903	     -8.86534876	     65.85128932	     45.75891652	     44.30211977	      1.39874905	      2.26742789
      0.15909091	      0.13435552	     -2.71208929	     91.87553479	      0.15663983	      1.15330354	      0.43070926	      0.61609017	     -0.21945104	      9.01459210	      5.80686367	      0.10134889	     28.80264674	     -9.11976547	      0.00000000	      2.42976230	      1.52437419	     11.24221725	      6.24683816	      0.10902789	     32.51421384	     -8.17137676	      0.00000000	      0.58234995	      0.09750175	      0.12161155	      1.08148209	      0.12967732	      0.12921228	      0.95674273	      0.23706575	      0.12921228	      0.66556776	      0.23706575	      0.10641011	      0.54077016	      0.19882556	      0.09880939	      0.33275476	      0.15103021	      0.09120867	      4.15966747	      1.10295926	      0.67636698	      0.00000000	      0.00000000	     25.26552024	     -7.96837836	      6.71395809	     67.01205705	      1.13060220	     76.88133699	     27.72350361	     88.06611151	    -11.91688798	    -22.93576935	     59.01140540	     -8.83849565	     65.17606474	     45.74659995	     42.46193057	      1.05702432	      3.87078585
      0.18181818	      0.24717711	     -2.70492607	     91.98436546	      0.15620333	      1.15336723	      0.43119541	      0.83998211	     -0.23219164	      6.35959178	      6.24263703	      0.10895457	     29.67920841	     -5.53828787	      0.00000000	      2.77294777	      1.33699420	      8.75454890	      6.86345029	      0.11978981	     33.77593986	     -4.88189225	      0.00000000	      0.57725566	      0.11417001	      0.12302543	      1.07202148	      0.15184611	      0.13071452	      0.94837332	      0.27759296	      0.13071452	      0.65974549	      0.27759296	      0.10764725	      0.53603960	      0.23281549	      0.09995816	      0.32984388	      0.17684935	      0.09226907	      4.12327943	      1.29151399	      0.68423052	      0.00000000	      0.00000000	     25.38968081	     -8.47754680	      5.99009483	     67.04776704	      1.09157357	     76.98090993	     27.37525545	     87.57631054	    -12.13011419	    -23.01791547	     59.04201710	     -8.38830792	     64.83842918	     45.24350373	     42.01530348	      0.71281401	      4.95897679
      0.20454545	      0.20616331	     -2.78964487	     92.18396906	      0.15652524	      1.15336105	      0.43058630	      0.51804036	     -0.05362613	     10.49548075	      5.53061785	      0.09652749	     27.92761449	    -11.53987832	      0.00000000	      2.81843936	      1.24398618	      6.85848672	      6.79139296	      0.11853217	     34.48654777	     -1.99090800	      0.00000000	      0.60266622	      0.09760451	      0.09252697	      1.11921144	      0.12981400	      0.09830991	      0.99012033	      0.23731561	      0.09830991	      0.68878722	      0.23731561	      0.08096110	      0.55963585	      0.19903512	      0.07517817	      0.34436348	      0.15118939	      0.06939523	      4.30478455	      1.10412175	      0.51460727	      0.00000000	      0.00000000	     25.40607294	     -8.64114379	      5.35873107	     66.53108165	      1.12495772	     75.49837088	     27.61567804	     87.95561676	    -12.37970075	    -22.27305922	     59.16933651	     -8.60373631	     65.74139170	     45.47345127	     36.76439379	      0.91264387	      5.96219959
      0.22727273	      0.21562097	     -2.78898151	     92.11206114	      0.15665446	      1.15358641	      0.43082900	      0.65749932	     -0.09601102	      9.17923333	      5.75323350	      0.10041287	     28.61646618	     -9.45380931	      0.00000000	      2.88464658	      1.18731494	      5.73282648	      6.93597274	      0.12105556	     34.75528897	     -0.71899060	      0.00000000	      0.60126733	      0.09218854	      0.10958994	      1.11661357	      0.12261076	      0.11643931	      0.98782210	      0.22414722	      0.11643931	      0.68718844	      0.22414722	      0.09589120	      0.55833685	      0.18799088	      0.08904183	      0.34356415	      0.14280005	      0.08219245	      4.29479244	      1.04285523	      0.60950637	      0.00000000	      0.00000000	     25.30119602	     -8.82271290	      4.51921514	     66.67657167	      1.03226499	     76.20422957	     27.80565838	     88.06223438	    -12.75498768	    -22.02379043	     58.91365193	     -8.52773079	     65.33482082	     45.20531464	     36.94905697	      1.25947720	      5.58055439
